<?xml version="1.0" encoding="UTF-8"?>
<svg id="Layer_1" xmlns="http://www.w3.org/2000/svg" version="1.1" viewBox="0 0 437.01 430.72">
  <!-- Generator: Adobe Illustrator 30.5.1, SVG Export Plug-In . SVG Version: 2.1.4 Build 3)  -->
  <defs>
    <style>
      .st0 {
        fill: #5acaed;
      }

      .st1 {
        fill: #231f20;
      }

      .st2 {
        fill: #384f9e;
      }
    </style>
  </defs>
  <g>
    <path class="st2" d="M368.65,243.88c-1.27,2.75-2.57,5.44-3.88,7.99-3.49,4.68-8.92,8.55-15.95,11.59-1.66-23.35-16.84-56.31-37.85-86.18,39.36,21.61,62.73,46.79,57.68,66.6Z"/>
    <path class="st0" d="M364.77,251.87c-7.13,14.09-14.53,25.12-19.72,32.41,3.26-5.3,4.39-12.45,3.78-20.82,7.03-3.04,12.46-6.91,15.95-11.59Z"/>
    <path class="st0" d="M348.83,263.47c.62,8.37-.51,15.52-3.78,20.82-.65.93-1.27,1.81-1.86,2.61-16.25,19-66.66,3.7-106.9-21.5,47.5,9.3,89,8.32,112.54-1.93Z"/>
    <path class="st0" d="M280.4,140.71c10.89,10.87,21.3,23.42,30.57,36.57-21.87-11.99-48.68-22.89-78.29-31.17-35.95-10.03-70.12-14.56-97.96-13.92-6.04-20.63-6.63-38.14-.44-48.13.82-1.09,1.64-2.15,2.44-3.23,21.4-22.57,97.25,13.54,143.68,59.86Z"/>
    <path class="st2" d="M236.28,265.4c-10.42-2.03-21.12-4.55-31.97-7.59-82.91-23.16-143.78-66.93-135.97-97.76.83-3.28,2.41-6.29,4.67-9,.02-.02.03-.04.05-.05,1.29-1.24,2.66-2.59,4.1-4.01,11.19-9.18,31.62-14.22,57.56-14.77,11.27,38.5,41.56,87.9,82.43,119.84,5.96,4.65,12.39,9.15,19.13,13.35Z"/>
    <path class="st2" d="M134.29,84.08c-6.19,9.99-5.6,27.5.44,48.13-25.94.55-46.38,5.59-57.56,14.77,15.51-15.28,39.61-40.1,57.12-62.9Z"/>
  </g>
  <g>
    <path class="st1" d="M104.78,346.24c-.51-.54-1.12-.98-1.81-1.31-.7-.33-1.98-.49-2.76-.49h-1.69v1.64c0,.47.16.87.47,1.21.31.34.69.52,1.15.55.42,0,1.33.08,1.64.24.32.16.6.37.81.63.22.26.39.55.51.87.12.32.18.64.18.97,0,.36-.07.7-.2,1.02-.13.33-.31.62-.53.86-.21.24-.47.43-.76.58-.28.14-.59.22-.9.24h-11.22c-.45,0-.86.18-1.17.52-.31.33-.47.74-.47,1.21v1.64h13.1c.76-.06,1.48-.27,2.13-.62.64-.34,1.2-.79,1.68-1.34.47-.54.84-1.17,1.11-1.88.27-.7.41-1.46.41-2.24,0-.84-.15-1.64-.45-2.38-.3-.73-.71-1.38-1.22-1.92Z"/>
    <path class="st1" d="M89.44,346.01c.52.55,1.13.99,1.81,1.31.7.33,2.18.49,2.96.49h1.67v-1.64c0-.49-.16-.91-.49-1.24-.33-.34-.72-.51-1.18-.51-.34,0-1.4-.07-1.71-.2-.31-.13-.57-.32-.79-.56-.23-.24-.41-.54-.55-.88-.14-.33-.21-.69-.21-1.06s.07-.72.21-1.05c.14-.33.33-.62.55-.86.22-.24.49-.43.8-.58.31-.14.63-.21.97-.21h10.57c.46,0,.85-.17,1.17-.52.31-.33.47-.75.47-1.24v-1.61h-12.01c-.83-.03-1.61.1-2.33.42-.72.31-1.34.75-1.87,1.31-.52.55-.94,1.21-1.25,1.95-.31.75-.46,1.55-.46,2.39s.15,1.64.45,2.37c.3.73.71,1.38,1.22,1.92Z"/>
    <path class="st1" d="M136.79,335.98c-.19.21-.29.47-.29.76v9.7c0,1.34-.33,2.6-.99,3.73-.66,1.13-1.56,2.02-2.67,2.63-.32.17-.58.42-.78.74-.2.33-.28.7-.26,1.08v2.14l1-.33c1.03-.35,1.99-.86,2.84-1.52.85-.66,1.59-1.44,2.19-2.33.6-.89,1.07-1.87,1.4-2.94s.48-2.19.46-3.35v-10.67h-2.12c-.31,0-.58.12-.77.34Z"/>
    <path class="st1" d="M126.85,352.82c-1.12-.62-2.02-1.5-2.68-2.63-.66-1.13-.99-2.39-.99-3.73v-9.7c0-.29-.1-.56-.29-.76-.2-.22-.46-.34-.75-.34h-2.15v10.81c0,1.13.17,2.23.5,3.29.33,1.05.81,2.03,1.41,2.91.6.88,1.34,1.66,2.17,2.31.84.66,1.79,1.16,2.82,1.5l1.01.31v-2.13c0-.4-.1-.76-.29-1.08-.19-.32-.45-.57-.77-.73Z"/>
    <path class="st1" d="M157.4,336.63c-1.13.58-2.13,1.34-2.97,2.28-.84.94-1.51,2.03-1.99,3.26-.48,1.23-.72,2.56-.72,3.96s.24,2.71.72,3.94c.48,1.23,1.15,2.33,1.99,3.26.84.94,1.84,1.71,2.97,2.28,1.13.58,2.37.91,3.69.99h9.05v-1.64c0-.47-.16-.87-.47-1.21-.32-.34-.71-.52-1.17-.52h-6.93c-.91,0-1.78-.19-2.58-.55-.81-.37-1.52-.88-2.13-1.53-.61-.64-1.09-1.41-1.44-2.27-.35-.86-.52-1.78-.52-2.76s.18-1.93.52-2.79c.35-.86.83-1.62,1.44-2.27.61-.64,1.32-1.16,2.13-1.53.8-.37,1.67-.55,2.58-.55h6.93c.46,0,.85-.17,1.17-.52.31-.33.47-.74.47-1.21v-1.64h-9.07c-1.3.08-2.54.41-3.67.99Z"/>
    <path class="st1" d="M187.86,336.63c-1.13.58-2.13,1.34-2.97,2.28-.84.94-1.51,2.03-1.99,3.26-.48,1.23-.72,2.56-.72,3.96s.24,2.71.72,3.94c.48,1.23,1.15,2.33,1.99,3.26.84.94,1.84,1.71,2.97,2.28,1.13.58,2.37.91,3.69.99h9.05v-1.64c0-.47-.16-.87-.47-1.21-.32-.34-.71-.52-1.17-.52h-6.93c-.91,0-1.78-.19-2.58-.55-.81-.37-1.52-.88-2.13-1.53-.61-.64-1.1-1.41-1.44-2.27-.35-.86-.52-1.78-.52-2.76s.18-1.93.52-2.79c.35-.86.84-1.62,1.44-2.27.61-.64,1.32-1.16,2.13-1.53.8-.37,1.67-.55,2.58-.55h6.93c.46,0,.85-.17,1.17-.52.31-.33.47-.74.47-1.21v-1.64h-9.07c-1.3.08-2.54.41-3.67.99Z"/>
    <path class="st1" d="M214.71,339.01h15.75c.46,0,.85-.17,1.17-.52.31-.33.47-.74.47-1.21v-1.64h-18.42v2.26c0,.29.1.56.29.77.2.22.46.34.75.34Z"/>
    <path class="st1" d="M229.99,347.29c.31-.33.47-.74.47-1.21v-1.64h-15.77c-.29,0-.55.11-.74.33-.18.2-.27.45-.27.75v2.29h15.14c.46,0,.85-.17,1.17-.52Z"/>
    <path class="st1" d="M230.73,353.24h-16.05c-.29,0-.55.11-.74.33-.18.2-.27.46-.27.75v2.29h18.7v-1.64c0-.47-.16-.87-.47-1.21-.32-.34-.71-.52-1.17-.52Z"/>
    <path class="st1" d="M312.9,335.64h-1.64v19.24c0,.47.16.87.47,1.21.32.34.72.52,1.17.52h1.64v-19.24c0-.47-.16-.87-.47-1.21-.32-.34-.72-.52-1.17-.52Z"/>
    <path class="st1" d="M347.31,335.64c-.42,0-.81.11-1.15.34-.35.22-.62.53-.8.92l-6.63,13.93c-.82,1.71-1.65,3.43-2.49,5.16l-.3.62h2.76c.5,0,.9-.22,1.16-.64l.16-.26s.1-.21.25-.53l.76-1.61c.35-.75.88-1.85,1.57-3.28l2.67-5.57c1.09-2.27,2.43-5.1,4.03-8.46l.29-.61h-2.27Z"/>
    <path class="st1" d="M335.16,346.54c-.05-.11-.11-.22-.17-.35-.06-.14-.13-.29-.21-.43-.07-.13-.13-.25-.17-.35l-.57-1.22c-.23-.49-.51-1.08-.84-1.77-.33-.69-.71-1.48-1.15-2.39-.44-.9-.93-1.94-1.49-3.13-.19-.39-.45-.7-.78-.92-.34-.23-.72-.34-1.15-.34h-2.3l7.62,15.97,1.33-2.73c.32-.72.32-1.43,0-2.1-.02-.04-.06-.13-.13-.25Z"/>
    <g>
      <path class="st1" d="M263.03,346.24c-.51-.54-1.12-.98-1.81-1.31-.7-.33-1.98-.49-2.76-.49h-1.69v1.64c0,.47.16.87.47,1.21.31.34.69.52,1.15.55.42,0,1.33.08,1.64.24.32.16.6.37.81.63.22.26.39.55.51.87.12.32.18.64.18.97,0,.36-.07.7-.2,1.02-.13.33-.31.62-.53.86-.21.24-.47.43-.76.58-.28.14-.59.22-.9.24h-11.22c-.45,0-.86.18-1.17.52-.31.33-.47.74-.47,1.21v1.64h13.1c.76-.06,1.48-.27,2.13-.62.64-.34,1.2-.79,1.68-1.34.47-.54.84-1.17,1.11-1.88.27-.7.41-1.46.41-2.24,0-.84-.15-1.64-.45-2.38-.3-.73-.71-1.38-1.22-1.92Z"/>
      <path class="st1" d="M247.7,346.01c.52.55,1.13.99,1.81,1.31.7.33,2.18.49,2.96.49h1.67v-1.64c0-.49-.16-.91-.49-1.24-.33-.34-.72-.51-1.18-.51-.34,0-1.4-.07-1.71-.2-.31-.13-.57-.32-.79-.56-.23-.24-.41-.54-.55-.88-.14-.33-.21-.69-.21-1.06s.07-.72.21-1.05c.14-.33.33-.62.55-.86.22-.24.49-.43.8-.58.31-.14.63-.21.97-.21h10.57c.46,0,.85-.17,1.17-.52.31-.33.47-.75.47-1.24v-1.61h-12.01c-.83-.03-1.61.1-2.33.42-.72.31-1.34.75-1.87,1.31-.52.55-.94,1.21-1.25,1.95-.31.75-.46,1.55-.46,2.39s.15,1.64.45,2.37c.3.73.71,1.38,1.22,1.92Z"/>
    </g>
    <g>
      <path class="st1" d="M295.79,346.24c-.51-.54-1.12-.98-1.81-1.31-.7-.33-1.98-.49-2.76-.49h-1.69v1.64c0,.47.16.87.47,1.21.31.34.69.52,1.15.55.42,0,1.33.08,1.64.24.32.16.6.37.81.63.22.26.39.55.51.87.12.32.18.64.18.97,0,.36-.07.7-.2,1.02-.13.33-.31.62-.53.86-.21.24-.47.43-.76.58-.28.14-.59.22-.9.24h-11.22c-.45,0-.86.18-1.17.52-.31.33-.47.74-.47,1.21v1.64h13.1c.76-.06,1.48-.27,2.13-.62.64-.34,1.2-.79,1.68-1.34.47-.54.84-1.17,1.11-1.88.27-.7.41-1.46.41-2.24,0-.84-.15-1.64-.45-2.38-.3-.73-.71-1.38-1.22-1.92Z"/>
      <path class="st1" d="M280.46,346.01c.52.55,1.13.99,1.81,1.31.7.33,2.18.49,2.96.49h1.67v-1.64c0-.49-.16-.91-.49-1.24-.33-.34-.72-.51-1.18-.51-.34,0-1.4-.07-1.71-.2-.31-.13-.57-.32-.79-.56-.23-.24-.41-.54-.55-.88-.14-.33-.21-.69-.21-1.06s.07-.72.21-1.05c.14-.33.33-.62.55-.86.22-.24.49-.43.8-.58.31-.14.63-.21.97-.21h10.57c.46,0,.85-.17,1.17-.52.31-.33.47-.75.47-1.24v-1.61h-12.01c-.83-.03-1.61.1-2.33.42-.72.31-1.34.75-1.87,1.31-.52.55-.94,1.21-1.25,1.95-.31.75-.46,1.55-.46,2.39s.15,1.64.45,2.37c.3.73.71,1.38,1.22,1.92Z"/>
    </g>
  </g>
</svg>